<?xml version="1.0" encoding="UTF-8"?>
<svg width="512pt" height="512pt" version="1.1" viewBox="0 0 512 512" xmlns="http://www.w3.org/2000/svg">
 <g>
  <path d="m25.602 0h460.8c14.137 0 25.602 14.137 25.602 25.602v460.8c0 14.137-11.461 25.602-25.602 25.602h-460.8c-14.137 0-25.602-14.137-25.602-25.602v-460.8c0-14.137 11.461-25.602 25.602-25.602z" fill="#fff"/>
  <path d="m272.12 214.54c-6.8711-1.7578-13.871 2.3633-15.668 9.2227l-25.797 96.73c-1.7578 6.8711 2.3633 13.871 9.2227 15.672 1.0469 0.29688 2.1328 0.44922 3.2227 0.44922 5.8672-0.019531 10.98-3.9922 12.449-9.6719l25.797-96.73h-0.003906c1.7578-6.8711-2.3633-13.871-9.2227-15.672z" fill="#7739dc"/>
  <path d="m320.23 237.49c-4.8789-5.1992-13.051-5.4609-18.25-0.58203-5.1992 4.8828-5.4609 13.051-0.58203 18.25l20.184 21.508-19.57 18.281c-2.6406 2.3008-4.2344 5.5703-4.418 9.0664-0.17969 3.5 1.0703 6.918 3.4609 9.4766 2.3906 2.5547 5.7188 4.0312 9.2188 4.0859s6.875-1.3164 9.3438-3.7969l29.02-27.086c2.5039-2.3359 3.9805-5.5703 4.0938-8.9961 0.11719-3.4219-1.1367-6.7539-3.4805-9.2539z" fill="#7739dc"/>
  <path d="m190.38 276.64 20.023-21.508c4.8633-5.2188 4.5742-13.387-0.64453-18.25-5.2148-4.8594-13.387-4.5703-18.25 0.64453l-28.824 30.953v0.003907c-4.8477 5.207-4.5625 13.363 0.64453 18.215l29.02 27.086c5.2383 4.5547 13.145 4.1484 17.883-0.92188 4.7422-5.0742 4.6211-12.988-0.27734-17.91z" fill="#7739dc"/>
  <path d="m381.75 127.02h-251.5c-5.1328 0-10.051 2.0391-13.68 5.668-3.6289 3.6289-5.668 8.5508-5.668 13.68v219.26c0 5.1328 2.0391 10.051 5.668 13.68 3.6289 3.6289 8.5469 5.668 13.68 5.668h251.5c5.1328 0 10.055-2.0391 13.68-5.668 3.6289-3.6289 5.668-8.5469 5.668-13.68v-219.26c0-5.1289-2.0391-10.051-5.668-13.68-3.625-3.6289-8.5469-5.668-13.68-5.668zm-149.93 19.348c3.8477 0 7.5391 1.5273 10.262 4.25 2.7188 2.7227 4.25 6.4102 4.25 10.262 0 3.8477-1.5312 7.5352-4.25 10.258-2.7227 2.7227-6.4141 4.25-10.262 4.25s-7.5391-1.5273-10.258-4.25c-2.7227-2.7227-4.25-6.4102-4.25-10.258-0.007813-3.8516 1.5156-7.5469 4.2383-10.27 2.7227-2.7227 6.418-4.25 10.27-4.2422zm-38.691 0c3.8477 0 7.5391 1.5273 10.262 4.25 2.7188 2.7227 4.2461 6.4102 4.2461 10.262 0 3.8477-1.5273 7.5352-4.2461 10.258-2.7227 2.7227-6.4141 4.25-10.262 4.25s-7.5391-1.5273-10.262-4.25c-2.7188-2.7227-4.25-6.4102-4.25-10.258-0.007812-3.8516 1.5195-7.5469 4.2422-10.27 2.7227-2.7227 6.418-4.25 10.27-4.2422zm-38.691 0c3.8477 0 7.5391 1.5273 10.258 4.25 2.7227 2.7227 4.25 6.4102 4.25 10.262 0 3.8477-1.5273 7.5352-4.25 10.258-2.7188 2.7227-6.4102 4.25-10.258 4.25s-7.5391-1.5273-10.262-4.25c-2.7188-2.7227-4.25-6.4102-4.25-10.258-0.007813-3.8516 1.5195-7.5469 4.2422-10.27 2.7227-2.7227 6.418-4.25 10.27-4.2422zm217.64 206.36c0 0.85547-0.33984 1.6758-0.94531 2.2812-0.60547 0.60547-1.4258 0.94531-2.2773 0.94531h-225.71c-1.7812 0-3.2266-1.4453-3.2266-3.2266v-154.77c0-1.7812 1.4453-3.2227 3.2266-3.2227h225.71c0.85156 0 1.6719 0.33984 2.2773 0.94141 0.60547 0.60547 0.94531 1.4258 0.94531 2.2812z" fill="#7739dc"/>
 </g>
</svg>
